<svg width="151" height="80" viewBox="0 0 151 80" fill="none" xmlns="http://www.w3.org/2000/svg">
<path d="M0.252 32.001L11.34 5.39698H15.228L26.388 32.001H20.952L18.108 25.125H8.64L5.688 32.001H0.252ZM10.44 20.409H16.128L13.284 12.345L10.44 20.409ZM26.9004 32.001L38.0244 5.39698H41.9124L53.0364 32.001H47.7084L39.9684 12.165L32.2284 32.001H26.9004ZM55.8529 32.001V5.39698H60.7849V15.801H62.5489C66.6529 15.801 68.5249 16.053 70.1449 16.845C72.7009 18.105 74.2849 20.805 74.2849 23.937C74.2849 26.889 72.9169 29.301 70.5049 30.669C68.7409 31.677 66.7249 32.001 62.6209 32.001H55.8529ZM60.7849 27.285H62.7649C64.6369 27.285 65.5729 27.213 66.5449 27.033C68.2729 26.637 69.3169 25.449 69.3169 23.829C69.3169 20.553 64.8169 20.517 62.5129 20.517H60.7849V27.285ZM89.5615 17.673V10.113H87.8335C86.3575 10.113 85.4575 10.185 84.5215 10.401C83.0455 10.797 82.1095 12.165 82.1095 13.965C82.1095 17.421 85.4215 17.673 88.0495 17.673H89.5615ZM76.0615 32.001L82.3615 21.849C78.9055 20.913 77.1415 17.241 77.1415 13.857C77.1415 10.797 78.4015 8.24098 80.6335 6.80097C82.2535 5.75698 84.1255 5.39698 87.8695 5.39698H94.4935V32.001H89.5615V22.389H87.5455L81.7495 32.001H76.0615ZM99.6224 32.001V5.39698H104.554V16.125H114.058V5.39698H118.99V32.001H114.058V20.841H104.554V32.001H99.6224ZM143.315 24.585H149.111C147.023 29.445 142.307 32.469 136.835 32.469C129.059 32.469 122.831 26.313 122.831 18.609C122.831 11.085 128.987 4.92898 136.511 4.92898C142.163 4.92898 146.807 7.91698 149.111 13.029H143.603C141.803 10.689 139.715 9.68098 136.619 9.68098C131.579 9.68098 127.799 13.533 127.799 18.645C127.799 23.649 131.831 27.717 136.727 27.717C139.283 27.717 141.119 26.853 143.315 24.585Z" fill="#E22126"/>
<path d="M6.084 70.833H9.144C12.744 70.833 16.632 70.653 16.632 65.937C16.632 64.065 15.768 62.589 14.364 61.977C13.356 61.473 11.952 61.257 9.828 61.257H6.084V70.833ZM2.664 74.001V47.397H18.396V50.565H6.084V58.089H9.972C13.608 58.089 15.444 58.485 17.028 59.529C18.972 60.753 20.088 63.129 20.088 65.973C20.088 68.961 18.9 71.337 16.812 72.597C15.156 73.605 13.212 74.001 9.72 74.001H2.664ZM25.3384 74.001V47.397H39.8104V50.565H28.7584V59.025H39.4144V62.193H28.7584V70.833H39.8104V74.001H25.3384ZM49.2145 74.001V50.565H43.5265V47.397H58.3585V50.565H52.6345V74.001H49.2145ZM61.5187 60.717C61.5187 53.013 67.7827 46.929 75.7387 46.929C83.2627 46.929 89.5267 53.157 89.5267 60.717C89.5267 68.349 83.2987 74.469 75.5947 74.469C67.8547 74.469 61.5187 68.313 61.5187 60.717ZM64.9747 60.717C64.9747 66.513 69.7267 71.265 75.5587 71.265C81.3907 71.265 86.0707 66.585 86.0707 60.753C86.0707 54.813 81.3907 50.133 75.4147 50.133C69.7267 50.133 64.9747 54.957 64.9747 60.717ZM95.1193 74.001V47.397H98.5393V58.773H110.923V47.397H114.343V74.001H110.923V61.941H98.5393V74.001H95.1193Z" fill="#FAFAFA"/>
</svg>
