<svg width="151" height="80" viewBox="0 0 151 80" fill="none" xmlns="http://www.w3.org/2000/svg">
<path d="M0.252 32L11.34 5.396H15.228L26.388 32H20.952L18.108 25.124H8.64L5.688 32H0.252ZM10.44 20.408H16.128L13.284 12.344L10.44 20.408ZM26.9004 32L38.0244 5.396H41.9124L53.0364 32H47.7084L39.9684 12.164L32.2284 32H26.9004ZM55.8529 32V5.396H60.7849V15.8H62.5489C66.6529 15.8 68.5249 16.052 70.1449 16.844C72.7009 18.104 74.2849 20.804 74.2849 23.936C74.2849 26.888 72.9169 29.3 70.5049 30.668C68.7409 31.676 66.7249 32 62.6209 32H55.8529ZM60.7849 27.284H62.7649C64.6369 27.284 65.5729 27.212 66.5449 27.032C68.2729 26.636 69.3169 25.448 69.3169 23.828C69.3169 20.552 64.8169 20.516 62.5129 20.516H60.7849V27.284ZM89.5615 17.672V10.112H87.8335C86.3575 10.112 85.4575 10.184 84.5215 10.4C83.0455 10.796 82.1095 12.164 82.1095 13.964C82.1095 17.42 85.4215 17.672 88.0495 17.672H89.5615ZM76.0615 32L82.3615 21.848C78.9055 20.912 77.1415 17.24 77.1415 13.856C77.1415 10.796 78.4015 8.24 80.6335 6.8C82.2535 5.756 84.1255 5.396 87.8695 5.396H94.4935V32H89.5615V22.388H87.5455L81.7495 32H76.0615ZM99.6224 32V5.396H104.554V16.124H114.058V5.396H118.99V32H114.058V20.84H104.554V32H99.6224ZM143.315 24.584H149.111C147.023 29.444 142.307 32.468 136.835 32.468C129.059 32.468 122.831 26.312 122.831 18.608C122.831 11.084 128.987 4.928 136.511 4.928C142.163 4.928 146.807 7.916 149.111 13.028H143.603C141.803 10.688 139.715 9.68 136.619 9.68C131.579 9.68 127.799 13.532 127.799 18.644C127.799 23.648 131.831 27.716 136.727 27.716C139.283 27.716 141.119 26.852 143.315 24.584Z" fill="#E22126"/>
<path d="M6.084 70.832H9.144C12.744 70.832 16.632 70.652 16.632 65.936C16.632 64.064 15.768 62.588 14.364 61.976C13.356 61.472 11.952 61.256 9.828 61.256H6.084V70.832ZM2.664 74V47.396H18.396V50.564H6.084V58.088H9.972C13.608 58.088 15.444 58.484 17.028 59.528C18.972 60.752 20.088 63.128 20.088 65.972C20.088 68.96 18.9 71.336 16.812 72.596C15.156 73.604 13.212 74 9.72 74H2.664ZM25.3384 74V47.396H39.8104V50.564H28.7584V59.024H39.4144V62.192H28.7584V70.832H39.8104V74H25.3384ZM49.2145 74V50.564H43.5265V47.396H58.3585V50.564H52.6345V74H49.2145ZM61.5187 60.716C61.5187 53.012 67.7827 46.928 75.7387 46.928C83.2627 46.928 89.5267 53.156 89.5267 60.716C89.5267 68.348 83.2987 74.468 75.5947 74.468C67.8547 74.468 61.5187 68.312 61.5187 60.716ZM64.9747 60.716C64.9747 66.512 69.7267 71.264 75.5587 71.264C81.3907 71.264 86.0707 66.584 86.0707 60.752C86.0707 54.812 81.3907 50.132 75.4147 50.132C69.7267 50.132 64.9747 54.956 64.9747 60.716ZM95.1193 74V47.396H98.5393V58.772H110.923V47.396H114.343V74H110.923V61.94H98.5393V74H95.1193Z" fill="#101010"/>
</svg>
