<svg width="80" height="80" viewBox="0 0 80 80" fill="none" xmlns="http://www.w3.org/2000/svg">
<path d="M13.1875 14.9995C11.5465 14.9995 9.97266 15.658 8.81228 16.8301C7.6519 18.0022 7 19.5919 7 21.2495V50.4162C7 52.0738 7.6519 53.6635 8.81228 54.8356C9.97266 56.0077 11.5465 56.6662 13.1875 56.6662H58.5625C60.2035 56.6662 61.7773 56.0077 62.9377 54.8356C64.0981 53.6635 64.75 52.0738 64.75 50.4162V21.2495C64.75 19.5919 64.0981 18.0022 62.9377 16.8301C61.7773 15.658 60.2035 14.9995 58.5625 14.9995H13.1875ZM23.5 19.1662V23.3328C23.5 25.543 22.6308 27.6626 21.0836 29.2254C19.5365 30.7882 17.438 31.6662 15.25 31.6662H11.125V27.4995H15.25C16.344 27.4995 17.3932 27.0605 18.1668 26.2791C18.9404 25.4977 19.375 24.4379 19.375 23.3328V19.1662H23.5ZM35.875 43.1245C33.9605 43.1245 32.1244 42.3563 30.7706 40.9888C29.4168 39.6214 28.6562 37.7667 28.6562 35.8328C28.6562 33.899 29.4168 32.0443 30.7706 30.6769C32.1244 29.3094 33.9605 28.5412 35.875 28.5412C37.7895 28.5412 39.6257 29.3094 40.9794 30.6769C42.3332 32.0443 43.0938 33.899 43.0938 35.8328C43.0938 37.7667 42.3332 39.6214 40.9794 40.9888C39.6257 42.3563 37.7895 43.1245 35.875 43.1245ZM11.125 44.1662V39.9995H15.25C17.438 39.9995 19.5365 40.8775 21.0836 42.4403C22.6308 44.0031 23.5 46.1227 23.5 48.3328V52.4995H19.375V48.3328C19.375 47.2278 18.9404 46.168 18.1668 45.3866C17.3932 44.6052 16.344 44.1662 15.25 44.1662H11.125ZM56.5 44.1662C55.406 44.1662 54.3568 44.6052 53.5832 45.3866C52.8096 46.168 52.375 47.2278 52.375 48.3328V52.4995H48.25V48.3328C48.25 46.1227 49.1192 44.0031 50.6664 42.4403C52.2135 40.8775 54.312 39.9995 56.5 39.9995H60.625V44.1662H56.5ZM56.5 27.4995H60.625V31.6662H56.5C54.312 31.6662 52.2135 30.7882 50.6664 29.2254C49.1192 27.6626 48.25 25.543 48.25 23.3328V19.1662H52.375V23.3328C52.375 24.4379 52.8096 25.4977 53.5832 26.2791C54.3568 27.0605 55.406 27.4995 56.5 27.4995ZM68.875 50.4162C68.875 53.1788 67.7885 55.8284 65.8545 57.7819C63.9206 59.7354 61.2975 60.8328 58.5625 60.8328H15.6006C16.0273 62.0519 16.8178 63.1073 17.8632 63.8536C18.9086 64.5998 20.1574 65.0002 21.4375 64.9995H58.5625C62.3916 64.9995 66.0638 63.4631 68.7714 60.7281C71.4789 57.9932 73 54.2839 73 50.4162V29.5828C73.0007 28.2898 72.6043 27.0284 71.8655 25.9725C71.1267 24.9165 70.0819 24.118 68.875 23.687V50.4162Z" fill="#F1F1F1"/>
</svg>
