<svg width="80" height="80" viewBox="0 0 80 80" fill="none" xmlns="http://www.w3.org/2000/svg">
<path d="M72.4625 54.7133C71.9053 58.9478 69.8258 62.8346 66.6122 65.6479C63.3987 68.4612 59.271 70.0085 55 70.0008C30.1875 70.0008 10 49.8133 10 25.0008C9.99237 20.7299 11.5397 16.6022 14.3529 13.3886C17.1662 10.1751 21.0531 8.09554 25.2875 7.53833C26.3583 7.40759 27.4427 7.62665 28.3787 8.16283C29.3148 8.699 30.0523 9.52353 30.4813 10.5133L37.0813 25.2477V25.2852C37.4097 26.0429 37.5453 26.8701 37.4761 27.6929C37.4068 28.5158 37.1348 29.3087 36.6844 30.0008C36.6282 30.0852 36.5688 30.1633 36.5063 30.2415L30 37.954C32.3407 42.7102 37.3157 47.6415 42.1344 49.9883L49.7407 43.5165C49.8153 43.4536 49.8936 43.3952 49.975 43.3415C50.6666 42.8802 51.4622 42.5987 52.2899 42.5223C53.1177 42.4459 53.9514 42.5771 54.7157 42.904L54.7563 42.9227L69.4782 49.5196C70.4697 49.947 71.2962 50.6839 71.8342 51.6201C72.3721 52.5563 72.5926 53.6414 72.4625 54.7133Z" fill="#F1F1F1"/>
</svg>
