<svg width="80" height="80" viewBox="0 0 80 80" fill="none" xmlns="http://www.w3.org/2000/svg">
<path d="M29.7866 31.5791L31.5394 37.9445C33.1901 43.9409 34.0138 46.9408 36.4405 48.3041C38.8673 49.6708 41.9475 48.8644 48.1079 47.2586L54.6428 45.5502C60.8032 43.9443 63.8835 43.1414 65.2857 40.7804C66.688 38.416 65.8643 35.4161 64.2102 29.4197L62.4608 23.0578C60.81 17.058 59.983 14.0581 57.5596 12.6948C55.1295 11.3281 52.0493 12.1344 45.8888 13.7437L39.354 15.4453C33.1935 17.0511 30.1133 17.8575 28.7144 20.2219C27.3122 22.5828 28.1358 25.5827 29.7866 31.5791Z" fill="#F1F1F1"/>
<path d="M7.59063 17.4899C7.67845 17.1733 7.82781 16.8772 8.03017 16.6184C8.23253 16.3595 8.48393 16.1431 8.76998 15.9815C9.05602 15.8199 9.37112 15.7163 9.69725 15.6766C10.0234 15.6368 10.3541 15.6617 10.6706 15.7499L16.3473 17.3233C17.8518 17.7319 19.2247 18.5233 20.3323 19.6203C21.4399 20.7174 22.2444 22.0828 22.6673 23.5833L29.8373 49.5366L30.364 51.3599C32.4898 52.1435 34.2812 53.6347 35.4373 55.5833L36.4706 55.2633L66.0373 47.5799C66.3551 47.4972 66.6861 47.4779 67.0113 47.523C67.3366 47.5682 67.6498 47.677 67.933 47.8432C68.2162 48.0095 68.4639 48.2298 68.662 48.4918C68.8601 48.7537 69.0046 49.0521 69.0873 49.3699C69.17 49.6877 69.1894 50.0187 69.1442 50.344C69.099 50.6692 68.9902 50.9824 68.824 51.2656C68.6578 51.5489 68.4374 51.7966 68.1754 51.9946C67.9135 52.1927 67.6151 52.3372 67.2973 52.4199L37.8406 60.0733L36.7406 60.4133C36.7206 64.6466 33.7973 68.5199 29.374 69.6666C24.074 71.0466 18.624 67.9933 17.204 62.8533C15.784 57.7099 18.9306 52.4233 24.2306 51.0466C24.4918 50.9793 24.7553 50.9215 25.0206 50.8733L17.8473 24.9133C17.6542 24.2463 17.2918 23.6407 16.7953 23.1553C16.2988 22.6699 15.6851 22.3212 15.014 22.1433L9.33396 20.5666C9.01744 20.4791 8.72125 20.3301 8.46233 20.1281C8.2034 19.9261 7.9868 19.6751 7.82491 19.3894C7.66302 19.1037 7.559 18.7889 7.5188 18.463C7.4786 18.1371 7.50301 17.8064 7.59063 17.4899Z" fill="#F1F1F1"/>
</svg>
