<svg width="32" height="32" viewBox="0 0 32 32" fill="none" xmlns="http://www.w3.org/2000/svg">
<circle cx="16" cy="16" r="16" fill="#F29900"/>
<path d="M16.024 9.95004C12.7042 9.95008 9.99824 12.6422 9.99824 15.946C9.99824 16.9978 10.2743 18.0198 10.7905 18.9229L9.95177 21.9868L9.92892 22.0703L10.0127 22.0484L13.1594 21.2254C14.0367 21.6972 15.0214 21.948 16.0241 21.948C19.344 21.948 22.05 19.2559 22.05 15.952C22.05 14.3488 21.4236 12.842 20.2866 11.7107C19.7291 11.1504 19.0651 10.7061 18.3332 10.4039C17.6014 10.1016 16.8164 9.9473 16.024 9.95004ZM16.024 9.95004C16.0241 9.95004 16.0241 9.95004 16.0241 9.95004V10L16.0239 9.95004C16.024 9.95004 16.024 9.95004 16.024 9.95004ZM16.9861 18.7657C17.3519 18.8829 17.686 18.864 17.9486 18.8275L17.9489 18.8275C18.103 18.8051 18.3314 18.7114 18.5355 18.5809C18.7381 18.4513 18.9297 18.2772 18.9959 18.0868C19.0606 17.9088 19.0932 17.7441 19.1041 17.6145C19.1096 17.5497 19.1097 17.4928 19.1054 17.4469C19.1013 17.4034 19.0927 17.3623 19.0753 17.3351C19.0471 17.291 19.0046 17.262 18.9556 17.2361C18.9263 17.2206 18.8907 17.2042 18.8509 17.186C18.8259 17.1745 18.7992 17.1622 18.7713 17.1489C18.7353 17.1317 18.6646 17.0974 18.5762 17.0546C18.3001 16.9207 17.8514 16.7032 17.7495 16.6617L17.7495 16.6616L17.747 16.6608C17.6793 16.6373 17.61 16.6149 17.5427 16.6223C17.4702 16.6303 17.409 16.6713 17.3522 16.751L17.3517 16.7518C17.2511 16.899 16.9696 17.2329 16.8851 17.329L16.885 17.329L16.8841 17.3301C16.847 17.375 16.814 17.3938 16.7789 17.3978C16.7416 17.4022 16.692 17.3909 16.62 17.3536L16.62 17.3536L16.6185 17.3529C16.5959 17.3421 16.5664 17.3295 16.5308 17.3142C16.3234 17.2254 15.9082 17.0477 15.4302 16.6227L15.4302 16.6226C14.9906 16.2326 14.6986 15.753 14.608 15.6029C14.5716 15.5378 14.5727 15.4962 14.584 15.465C14.5969 15.4292 14.626 15.3976 14.6664 15.3575C14.7133 15.3109 14.7696 15.2431 14.8229 15.179C14.847 15.15 14.8705 15.1218 14.8922 15.0967C14.9625 15.0149 14.996 14.948 15.0376 14.8647C15.0415 14.8568 15.0456 14.8487 15.0497 14.8405L15.0497 14.8405L15.0502 14.8394C15.1077 14.7178 15.0773 14.6165 15.0376 14.5376C15.0027 14.468 14.7022 13.7388 14.5811 13.4374L14.5811 13.4374L14.5808 13.4367C14.5181 13.2871 14.4497 13.2114 14.3761 13.1762C14.3202 13.1494 14.2623 13.149 14.2243 13.1487C14.215 13.1486 14.2069 13.1486 14.2003 13.1481L14.2003 13.148H14.197H13.9075C13.7935 13.148 13.6225 13.1882 13.4728 13.3501L13.4728 13.3501L13.4721 13.3509C13.462 13.3624 13.4502 13.3751 13.4373 13.3893C13.2811 13.5598 12.941 13.931 12.941 14.626C12.941 15.0033 13.079 15.3716 13.2238 15.6553C13.3675 15.9367 13.5201 16.1392 13.5589 16.1905L13.5596 16.1915C13.5627 16.1959 13.5675 16.2028 13.5738 16.2121C13.7181 16.422 14.6867 17.8319 16.1309 18.4519C16.4888 18.6088 16.7681 18.6994 16.9861 18.7657ZM16.9861 18.7657C16.986 18.7657 16.9859 18.7657 16.9857 18.7656L17.001 18.718L16.9865 18.7658C16.9864 18.7658 16.9862 18.7658 16.9861 18.7657ZM13.2979 20.0436L11.5003 20.5137L11.9779 18.7732L11.9838 18.7516L11.9716 18.7328L11.8514 18.5474C11.8513 18.5473 11.8512 18.5472 11.8512 18.5471C11.3605 17.7673 11.0999 16.866 11.0992 15.946C11.0993 13.2499 13.3078 11.052 16.0181 11.052C17.3315 11.052 18.567 11.5628 19.4923 12.4894L19.4925 12.4896C19.9506 12.9433 20.3136 13.4829 20.5605 14.0773C20.8074 14.6716 20.9333 15.3088 20.9309 15.9518L20.9309 15.9522C20.9428 18.6481 18.7346 20.84 16.0241 20.84C15.1407 20.84 14.2751 20.6024 13.5169 20.157C13.5169 20.157 13.5168 20.1569 13.5168 20.1569L13.3362 20.0491L13.3182 20.0383L13.2979 20.0436Z" fill="#FAFAFA" stroke="#FAFAFA" stroke-width="0.1"/>
</svg>
